<svg xmlns="http://www.w3.org/2000/svg" xmlns:xlink="http://www.w3.org/1999/xlink" width="208" height="68" viewBox="0 0 208 68"><defs><filter id="a" x="0" y="0" width="208" height="68" filterUnits="userSpaceOnUse"><feOffset dy="3" input="SourceAlpha"/><feGaussianBlur stdDeviation="3" result="b"/><feFlood flood-opacity="0.322"/><feComposite operator="in" in2="b"/><feComposite in="SourceGraphic"/></filter></defs><g transform="translate(9 6)"><g transform="matrix(1, 0, 0, 1, -9, -6)" filter="url(#a)"><rect width="190" height="50" rx="4" transform="translate(9 6)" fill="#094076"/></g><path d="M29,9.969a9.974,9.974,0,0,1-11.828,9.795l-1.36,1.53a1.359,1.359,0,0,1-1.016.456H12.688v2.266a1.359,1.359,0,0,1-1.359,1.359H9.062v2.266A1.359,1.359,0,0,1,7.7,29H1.359A1.359,1.359,0,0,1,0,27.641V23.219a1.36,1.36,0,0,1,.4-.961l9.165-9.165A9.97,9.97,0,1,1,29,9.969ZM19.031,7.25A2.719,2.719,0,1,0,21.75,4.531,2.719,2.719,0,0,0,19.031,7.25Z" transform="translate(29 8.647)" fill="#c7c7c7"/><text transform="translate(63 29.825)" fill="#fff" font-size="16" font-family="Poppins-Medium, Poppins" font-weight="500"><tspan x="0" y="0">Gerar Token</tspan></text></g></svg>